<?xml version="1.0" encoding="utf-8"?>
<!DOCTYPE svg PUBLIC "-//W3C//DTD SVG 1.1//EN" "http://www.w3.org/Graphics/SVG/1.1/DTD/svg11.dtd">
<svg version="1.1" id="Layer_1" xmlns="http://www.w3.org/2000/svg" xmlns:xlink="http://www.w3.org/1999/xlink" x="0px" y="0px"
	 width="36.663px" height="36.663px" viewBox="0 0 36.663 36.663" enable-background="new 0 0 36.663 36.663" xml:space="preserve">
<path fill="#ffd900" d="M32.305,0H4.357C1.95,0,0,1.946,0,4.348v27.967c0,2.4,1.95,4.348,4.357,4.348h27.947
	c2.407,0,4.358-1.947,4.358-4.348V4.348C36.663,1.946,34.712,0,32.305,0 M26.352,5.728c0-0.632,0.513-1.145,1.146-1.145h3.438
	c0.632,0,1.145,0.513,1.145,1.145v3.438c0,0.632-0.513,1.145-1.145,1.145h-3.438c-0.633,0-1.146-0.513-1.146-1.145V5.728z
	 M18.374,11.34c3.894,0,7.051,3.15,7.051,7.034c0,3.885-3.157,7.034-7.051,7.034s-7.051-3.149-7.051-7.034
	C11.323,14.49,14.48,11.34,18.374,11.34 M33.226,32.08c0,0.632-0.513,1.146-1.146,1.146H4.583c-0.633,0-1.146-0.514-1.146-1.146
	V14.893H8.02c-0.597,0.859-0.798,2.463-0.798,3.48c0,6.135,5.003,11.127,11.152,11.127s11.153-4.992,11.153-11.127
	c0-1.018-0.145-2.596-0.885-3.48h4.583V32.08z"/>
<g>
</g>
<g>
</g>
<g>
</g>
<g>
</g>
<g>
</g>
<g>
</g>
</svg>
