<?xml version="1.0" encoding="utf-8"?>
<!DOCTYPE svg PUBLIC "-//W3C//DTD SVG 1.1//EN" "http://www.w3.org/Graphics/SVG/1.1/DTD/svg11.dtd">
<svg version="1.1" id="Layer_1" xmlns="http://www.w3.org/2000/svg" xmlns:xlink="http://www.w3.org/1999/xlink" x="0px" y="0px"
	 width="36.891px" height="33.537px" viewBox="0 0 36.891 33.537" enable-background="new 0 0 36.891 33.537" xml:space="preserve">
<g>
	<rect x="0.931" y="10.755" fill="#ffd900" width="7.189" height="22.782"/>
	<path fill="#ffffff" d="M27.766,10.536c-4.119,0-6.7,2.231-7.177,3.794v-3.575h-8.078c0.104,1.898,0,22.782,0,22.782h8.078V21.208
		c0-0.685-0.033-1.37,0.175-1.862c0.556-1.37,1.749-2.792,3.894-2.792c2.805,0,4.08,2.107,4.08,5.193v11.789h8.153V20.869
		C36.891,13.813,32.876,10.536,27.766,10.536"/>
	<path fill="#ffffff" d="M4.393,0C1.737,0,0,1.705,0,3.956c0,2.207,1.688,3.949,4.29,3.949h0.053c2.703,0,4.386-1.748,4.386-3.956
		C8.677,1.701,7.046,0,4.393,0"/>
</g>
<g>
</g>
<g>
</g>
<g>
</g>
<g>
</g>
<g>
</g>
<g>
</g>
</svg>
