<svg width="600" height="331" viewBox="0 0 600 331" fill="none" xmlns="http://www.w3.org/2000/svg" focusable="false" role="img">
<g clip-path="url(#clip0_14847_401656)">
<path opacity="0.05" fill-rule="evenodd" clip-rule="evenodd" d="M0.295523 113.811L45.0433 46.6892C45.3496 46.2297 45.9705 46.1055 46.43 46.4118L79.9908 68.7857L114.384 45.8571V0.999999C114.384 0.447714 114.831 0 115.384 0H205.098C205.65 0 206.098 0.447715 206.098 1V45.8571L240.491 68.7857L274.052 46.4118C274.511 46.1055 275.132 46.2297 275.438 46.6892L320.186 113.811C320.492 114.27 320.368 114.891 319.909 115.198L286.348 137.571V183.429L319.909 205.802C320.368 206.109 320.492 206.73 320.186 207.189L275.438 274.311C275.132 274.77 274.511 274.895 274.052 274.588L240.491 252.214L206.098 275.143V320C206.098 320.552 205.65 321 205.098 321H126.848C126.296 321 125.848 320.552 125.848 320V275.143L79.9908 252.214L34.9619 274.729C34.4946 274.962 33.9261 274.797 33.6572 274.349L0.142529 218.491C-0.0935563 218.097 -0.0315538 217.594 0.292915 217.269L34.1337 183.429V137.571L0.572872 115.198C0.113343 114.891 -0.0108299 114.27 0.295523 113.811ZM160.239 231.833C199.635 231.833 231.572 199.896 231.572 160.5C231.572 121.104 199.635 89.1666 160.239 89.1666C120.842 89.1666 88.9053 121.104 88.9053 160.5C88.9053 199.896 120.842 231.833 160.239 231.833Z" fill="#5C8EDB"/>
<g filter="url(#filter0_dd_14847_401656)">
<path d="M421.017 93H109.017C104.599 93 101.017 96.5817 101.017 101V314C101.017 318.418 104.599 322 109.017 322H421.017C425.435 322 429.017 318.418 429.017 314V101C429.017 96.5817 425.435 93 421.017 93Z" fill="white"/>
<path d="M235.056 207.5H192.399C190.466 207.5 188.899 209.067 188.899 211V253.608C188.899 255.541 190.466 257.108 192.399 257.108H235.056C236.989 257.108 238.556 255.541 238.556 253.608V211C238.556 209.067 236.989 207.5 235.056 207.5Z" stroke="#DDDEE0" stroke-dasharray="2.5 2.5"/>
<path d="M399.689 136.986H192.399C190.466 136.986 188.899 138.553 188.899 140.486V174.486C188.899 176.419 190.466 177.986 192.399 177.986H399.689C401.622 177.986 403.189 176.419 403.189 174.486V140.486C403.189 138.553 401.622 136.986 399.689 136.986Z" stroke="#DDDEE0" stroke-dasharray="2.5 2.5"/>
<path d="M317.673 207.5H275.017C273.084 207.5 271.517 209.067 271.517 211V253.608C271.517 255.541 273.084 257.108 275.017 257.108H317.673C319.606 257.108 321.173 255.541 321.173 253.608V211C321.173 209.067 319.606 207.5 317.673 207.5Z" stroke="#DDDEE0" stroke-dasharray="2.5 2.5"/>
<path d="M164.136 133.486H125.279C123.07 133.486 121.279 135.277 121.279 137.486V297.757C121.279 299.966 123.07 301.757 125.279 301.757H164.136C166.345 301.757 168.136 299.966 168.136 297.757V137.486C168.136 135.277 166.345 133.486 164.136 133.486Z" fill="#AFC8EE"/>
<path d="M429.017 93H101.017V109H429.017V93Z" fill="#727477"/>
<path d="M235.056 207H192.399C190.19 207 188.399 208.791 188.399 211V253.608C188.399 255.817 190.19 257.608 192.399 257.608H235.056C237.265 257.608 239.056 255.817 239.056 253.608V211C239.056 208.791 237.265 207 235.056 207Z" fill="#AFC8EE"/>
<path d="M401.159 273.923H190.93C189.532 273.923 188.399 275.056 188.399 276.453C188.399 277.851 189.532 278.984 190.93 278.984H401.159C402.556 278.984 403.689 277.851 403.689 276.453C403.689 275.056 402.556 273.923 401.159 273.923Z" fill="#AFC8EE"/>
<path d="M309.977 285.309H190.93C189.532 285.309 188.399 286.442 188.399 287.839C188.399 289.237 189.532 290.37 190.93 290.37H309.977C311.374 290.37 312.507 289.237 312.507 287.839C312.507 286.442 311.374 285.309 309.977 285.309Z" fill="#AFC8EE"/>
<path d="M399.689 207H357.032C354.823 207 353.032 208.791 353.032 211V253.608C353.032 255.817 354.823 257.608 357.032 257.608H399.689C401.898 257.608 403.689 255.817 403.689 253.608V211C403.689 208.791 401.898 207 399.689 207Z" fill="#AFC8EE"/>
<path d="M260.587 296.696H190.93C189.532 296.696 188.399 297.829 188.399 299.226C188.399 300.624 189.532 301.757 190.93 301.757H260.587C261.984 301.757 263.117 300.624 263.117 299.226C263.117 297.829 261.984 296.696 260.587 296.696Z" fill="#BED2F1"/>
<path d="M317.673 207H275.017C272.808 207 271.017 208.791 271.017 211V253.608C271.017 255.817 272.808 257.608 275.017 257.608H317.673C319.883 257.608 321.673 255.817 321.673 253.608V211C321.673 208.791 319.883 207 317.673 207Z" fill="#AFC8EE"/>
<path d="M125.017 105C127.226 105 129.017 103.209 129.017 101C129.017 98.7909 127.226 97 125.017 97C122.808 97 121.017 98.7909 121.017 101C121.017 103.209 122.808 105 125.017 105Z" fill="white"/>
<path d="M141.017 105C143.226 105 145.017 103.209 145.017 101C145.017 98.7909 143.226 97 141.017 97C138.808 97 137.017 98.7909 137.017 101C137.017 103.209 138.808 105 141.017 105Z" fill="white"/>
<path d="M157.017 105C159.226 105 161.017 103.209 161.017 101C161.017 98.7909 159.226 97 157.017 97C154.808 97 153.017 98.7909 153.017 101C153.017 103.209 154.808 105 157.017 105Z" fill="white"/>
</g>
<path d="M394.864 89.9806L193.895 140.779C191.753 141.32 190.456 143.495 190.997 145.637L199.329 178.6C199.871 180.742 202.046 182.04 204.188 181.498L405.157 130.7C407.299 130.159 408.596 127.983 408.055 125.842L399.723 92.8784C399.181 90.7366 397.006 89.4392 394.864 89.9806Z" fill="#5C8EDB"/>
<path d="M459.531 14.557L457.679 14.8935L442.931 1.94802L442.646 1.70009L416.624 15.7436L397.477 26.0681L392.953 26.9181L442.842 0L459.531 14.557Z" fill="#5C8EDB"/>
<path d="M397.121 86.3506V88.458H396.39H395.714V86.3506H397.121Z" fill="#E9F0FA"/>
<path d="M397.726 78.0979V86.3504H397.121H395.714H395.215V78.0979H396.39H397.726Z" fill="#5C8EDB"/>
<path d="M516.527 320.538V323H495.51V320.538H500.301H511.718H516.527Z" fill="#5C8EDB"/>
<path d="M554.999 320.538V323H533.982V320.538H536.564H548.373H554.999Z" fill="#5C8EDB"/>
<path d="M477.894 320.538V323H456.877V320.538H462.88H474.688H477.894Z" fill="#5C8EDB"/>
<path d="M511.718 307.203V320.538H500.319V277.009H511.718V307.203ZM509.937 312.516C509.937 311.731 509.702 310.963 509.263 310.31C508.824 309.658 508.2 309.149 507.47 308.85C506.74 308.55 505.936 308.472 505.162 308.627C504.388 308.781 503.677 309.161 503.119 309.717C502.562 310.274 502.184 310.982 502.032 311.753C501.88 312.524 501.961 313.322 502.266 314.047C502.571 314.771 503.085 315.389 503.743 315.823C504.402 316.257 505.175 316.487 505.965 316.483C507.008 316.479 508.007 316.068 508.75 315.34C509.492 314.612 509.918 313.624 509.937 312.587V312.516ZM505.965 301.891C506.638 301.891 507.295 301.692 507.855 301.321C508.414 300.949 508.85 300.421 509.108 299.803C509.365 299.184 509.433 298.504 509.301 297.848C509.17 297.192 508.846 296.589 508.37 296.116C507.894 295.643 507.288 295.321 506.628 295.191C505.969 295.06 505.284 295.127 504.663 295.383C504.041 295.639 503.51 296.073 503.136 296.629C502.762 297.185 502.563 297.839 502.563 298.508C502.544 298.966 502.618 299.424 502.781 299.853C502.944 300.282 503.193 300.674 503.513 301.005C503.832 301.335 504.216 301.599 504.64 301.778C505.065 301.958 505.521 302.05 505.983 302.05L505.965 301.891ZM508.993 285.616C508.989 285.021 508.809 284.441 508.474 283.948C508.139 283.455 507.665 283.072 507.111 282.847C506.558 282.622 505.949 282.565 505.363 282.683C504.777 282.801 504.239 283.089 503.817 283.511C503.396 283.933 503.109 284.469 502.994 285.053C502.878 285.636 502.939 286.241 503.169 286.79C503.399 287.339 503.787 287.808 504.284 288.138C504.782 288.468 505.367 288.644 505.965 288.644C506.747 288.649 507.501 288.354 508.068 287.819C508.636 287.284 508.974 286.552 509.01 285.775L508.993 285.616Z" fill="#5C8EDB"/>
<path d="M529.671 277.009L548.373 320.539H536.564L530.829 307.203L529.493 304.104L529.066 303.113L521.55 285.616H511.718V277.009H515.28H520.267H524.328H524.72H529.671Z" fill="#5C8EDB"/>
<path d="M500.301 277.009V285.616H489.721L482.187 303.113L480.441 307.203L474.688 320.539H462.879L481.599 277.009H486.533H490.629H495.527H500.301Z" fill="#5C8EDB"/>
<path d="M524.328 272.989V277.009H520.267L524.328 272.989Z" fill="#5C8EDB"/>
<path d="M520.766 271.554L515.28 277.009H511.718H510.382L515.868 271.554H515.975H520.766Z" fill="#5C8EDB"/>
<path d="M510.88 271.554L505.412 277.009H500.514L505.982 271.554H510.596H510.88Z" fill="#5C8EDB"/>
<path d="M500.995 271.554L495.527 277.009H490.629L496.097 271.554H498.199H500.8H500.995Z" fill="#5C8EDB"/>
<path d="M491.092 271.554L486.533 276.106V271.554H491.092Z" fill="#5C8EDB"/>
<path d="M513.855 254.182H498.199V255.581H513.855V254.182Z" fill="#5C8EDB"/>
<path d="M513.855 233.125H498.199V234.524H513.855V233.125Z" fill="#5C8EDB"/>
<path d="M513.855 212.051H498.199V213.45H513.855V212.051Z" fill="#5C8EDB"/>
<path d="M513.855 190.977H498.199V192.394H513.855V190.977Z" fill="#5C8EDB"/>
<path d="M513.855 169.921H498.199V171.32H513.855V169.921Z" fill="#5C8EDB"/>
<path d="M513.855 148.847H498.199V150.246H513.855V148.847Z" fill="#5C8EDB"/>
<path d="M515.975 132.873V271.555H515.868H513.855V255.581V254.182V234.524V233.125V213.45V212.051V192.394V190.977V171.32V169.921V150.246V148.847V132.873H515.975Z" fill="#5C8EDB"/>
<path d="M498.199 255.581V271.555H496.097H496.062V132.873H498.199V148.847V150.246V169.921V171.32V190.977V192.394V212.051V213.45V233.125V234.524V254.182V255.581Z" fill="#5C8EDB"/>
<path d="M518.913 129.296V132.873H515.974H513.855H509.847H502.26H498.199H496.062H492.66V129.296H507.122H510.596H514.906H518.913Z" fill="#5C8EDB"/>
<path d="M539.485 124.851V128.233L537.099 124.851H538.328H539.485Z" fill="#E9F0FA"/>
<path d="M531.541 124.851L534.676 129.296H530.366L527.231 124.851H531.541Z" fill="#E9F0FA"/>
<path d="M521.656 124.851L524.773 129.296H520.481L517.346 124.851H519.234H521.656Z" fill="#E9F0FA"/>
<path d="M511.771 124.851L514.906 129.296H510.596L507.461 124.851H511.771Z" fill="#E9F0FA"/>
<path d="M539.485 128.233V129.296H534.676L531.542 124.851H537.099L539.485 128.233Z" fill="#5C8EDB"/>
<path d="M527.231 124.851L530.366 129.296H524.773L521.656 124.851H527.231Z" fill="#5C8EDB"/>
<path d="M517.346 124.851L520.481 129.296H518.914H514.906L511.771 124.851H517.346Z" fill="#5C8EDB"/>
<path d="M507.461 124.851L510.596 129.296H507.123V124.851H507.461Z" fill="#5C8EDB"/>
<path d="M533.251 102.448C533.278 102.583 533.278 102.721 533.251 102.856H531.168C531.149 102.72 531.149 102.583 531.168 102.448C531.168 102.152 531.286 101.869 531.496 101.659C531.707 101.45 531.992 101.333 532.29 101.333C532.56 101.367 532.808 101.501 532.986 101.707C533.164 101.913 533.258 102.177 533.251 102.448Z" fill="#5C8EDB"/>
<path d="M510.524 75.1228L512.822 75.5478C512.82 75.7013 512.787 75.8529 512.726 75.9938C512.664 76.1347 512.576 76.2623 512.465 76.3692C512.354 76.476 512.223 76.5602 512.08 76.6168C511.936 76.6733 511.783 76.7013 511.629 76.6989C511.312 76.6989 511.009 76.5739 510.785 76.3514C510.561 76.1289 510.435 75.8271 510.435 75.5124C510.437 75.3777 510.467 75.245 510.524 75.1228Z" fill="#5C8EDB"/>
<path d="M504.433 67.0297C504.572 67.0273 504.709 67.0527 504.838 67.1043C504.966 67.156 505.083 67.2329 505.181 67.3304C505.279 67.4279 505.357 67.544 505.409 67.6719C505.461 67.7997 505.486 67.9367 505.484 68.0745C505.484 68.3517 505.373 68.6174 505.176 68.8134C504.979 69.0093 504.712 69.1194 504.433 69.1194C504.154 69.1194 503.887 69.0093 503.69 68.8134C503.493 68.6174 503.382 68.3517 503.382 68.0745C503.38 67.9367 503.405 67.7997 503.457 67.6719C503.509 67.544 503.586 67.4279 503.684 67.3304C503.782 67.2329 503.899 67.156 504.028 67.1043C504.156 67.0527 504.294 67.0273 504.433 67.0297Z" fill="#5C8EDB"/>
<path d="M458.551 15.9206C458.644 15.9206 458.736 15.939 458.821 15.9749C458.907 16.0107 458.984 16.0631 459.049 16.1291C459.114 16.1952 459.164 16.2734 459.198 16.3593C459.232 16.4451 459.248 16.5368 459.246 16.629C459.248 16.7204 459.232 16.8113 459.198 16.8962C459.164 16.9811 459.113 17.0582 459.048 17.1228C458.983 17.1874 458.905 17.2382 458.82 17.2721C458.735 17.3059 458.643 17.3221 458.551 17.3197C458.458 17.322 458.365 17.306 458.277 17.2726C458.19 17.2391 458.11 17.1889 458.042 17.1248C457.974 17.0606 457.92 16.9838 457.882 16.8988C457.844 16.8137 457.823 16.722 457.821 16.629C457.821 16.5345 457.84 16.4409 457.877 16.3538C457.914 16.2667 457.968 16.1878 458.036 16.1217C458.104 16.0557 458.185 16.0039 458.273 15.9694C458.362 15.9348 458.456 15.9183 458.551 15.9206Z" fill="#5C8EDB"/>
<path d="M446.636 22.0007C447.124 22.024 447.596 22.1903 447.991 22.4789C448.386 22.7675 448.688 23.1657 448.859 23.6243C449.03 24.0828 449.063 24.5816 448.953 25.0586C448.844 25.5357 448.597 25.9701 448.243 26.3081C447.889 26.6461 447.444 26.8727 446.962 26.96C446.481 27.0472 445.984 26.9912 445.534 26.7989C445.084 26.6066 444.701 26.2864 444.431 25.8781C444.161 25.4698 444.017 24.9912 444.017 24.5018C444.024 24.1655 444.098 23.834 444.234 23.5263C444.37 23.2186 444.565 22.9406 444.808 22.7084C445.051 22.4761 445.338 22.294 445.652 22.1726C445.965 22.0512 446.3 21.9928 446.636 22.0007Z" fill="#5C8EDB"/>
<path d="M399.636 27.0007C400.124 27.024 400.596 27.1903 400.991 27.4789C401.386 27.7675 401.688 28.1657 401.859 28.6243C402.03 29.0828 402.063 29.5816 401.953 30.0586C401.844 30.5357 401.597 30.9701 401.243 31.3081C400.889 31.6461 400.444 31.8727 399.962 31.96C399.481 32.0472 398.984 31.9912 398.534 31.7989C398.084 31.6066 397.701 31.2864 397.431 30.8781C397.161 30.4698 397.017 29.9912 397.017 29.5018C397.024 29.1655 397.098 28.834 397.234 28.5263C397.37 28.2186 397.565 27.9406 397.808 27.7084C398.051 27.4761 398.338 27.294 398.652 27.1726C398.965 27.0512 399.3 26.9928 399.636 27.0007Z" fill="#5C8EDB"/>
<path d="M464.376 23.0041L468.561 27.4669L461.383 25.9439L461.365 25.9616L457.768 21.5874L464.376 23.0041Z" fill="#5C8EDB"/>
<path d="M479.711 39.4209L470.984 37.5791L467.404 33.2227L475.508 34.9405H475.543L479.711 39.4209Z" fill="#5C8EDB"/>
<path d="M486.123 46.2921L490.273 50.7725L480.174 48.6297L476.559 44.2732L486.123 46.2921Z" fill="#5C8EDB"/>
<path d="M500.799 62.0357L489.24 59.5918L485.642 55.2354L496.614 57.5553H496.632L500.799 62.0357Z" fill="#5C8EDB"/>
<path d="M509.776 68.3579L515.476 69.5267L505.608 74.2374L504.433 74.0249L507.995 69.4028C508.352 69.0466 508.615 68.6087 508.761 68.1277L509.776 68.3579Z" fill="#5C8EDB"/>
<path d="M528.905 72.307L528.727 72.9269H528.709L520.427 76.8937L517.346 76.3448L514.478 75.8312L524.007 71.2976L528.905 72.307Z" fill="#5C8EDB"/>
<path d="M539.752 74.875C539.752 75.3885 537.455 85.9079 537.455 85.9079L522.743 82.1535C521.408 81.7706 520.205 81.0318 519.263 80.0172C518.321 79.0026 517.677 77.7509 517.399 76.398L520.463 76.947L527.196 78.1512L528.745 72.9801L528.941 72.3602L524.043 71.3508L518.147 70.1289L519.252 64.4973L533.127 67.4194C534.951 67.655 536.628 68.5403 537.846 69.9112C539.065 71.2821 539.742 73.0456 539.752 74.875Z" fill="#5C8EDB"/>
<path d="M531.096 102.856H538.327V124.851H519.216V102.856H531.096ZM535.834 119.715V105.069H522.191V119.715H535.834Z" fill="#5C8EDB"/>
<path d="M530.437 100.678C530.803 100.343 531.263 100.127 531.755 100.058H532.129C532.462 100.055 532.792 100.119 533.1 100.244C533.408 100.37 533.688 100.555 533.923 100.789C534.158 101.023 534.344 101.301 534.471 101.607C534.597 101.913 534.661 102.242 534.658 102.572C534.667 102.708 534.667 102.844 534.658 102.98H533.198C533.225 102.845 533.225 102.707 533.198 102.572C533.2 102.425 533.173 102.279 533.117 102.143C533.062 102.006 532.979 101.882 532.875 101.778C532.77 101.674 532.645 101.592 532.508 101.537C532.371 101.482 532.224 101.454 532.076 101.457C531.778 101.457 531.493 101.574 531.282 101.784C531.072 101.993 530.954 102.277 530.954 102.572C530.935 102.708 530.935 102.845 530.954 102.98H529.511C529.494 102.845 529.494 102.708 529.511 102.572C529.518 102.209 529.605 101.851 529.765 101.524C529.925 101.197 530.154 100.908 530.437 100.678Z" fill="#5C8EDB"/>
<path d="M531.755 99.9512C531.263 100.02 530.803 100.237 530.437 100.571L512.769 77.8854C513.215 77.6846 513.593 77.3583 513.855 76.9468L531.755 99.9512Z" fill="#5C8EDB"/>
<path d="M528.709 72.927L527.142 78.0981L520.427 76.8939L528.709 72.927Z" fill="#E9F0FA"/>
<path d="M512.84 75.548L510.524 75.123L509.135 74.8751L505.608 74.2552V74.2375L515.476 69.5269L518.112 70.0758L524.007 71.2978L514.478 75.8314L514.229 75.796L512.84 75.548Z" fill="#E9F0FA"/>
<path d="M519.234 104.255V124.851H517.346H511.771H507.461H507.123V104.255H519.234Z" fill="#5C8EDB"/>
<path d="M519.234 102.856H507.14V104.255H519.234V102.856Z" fill="#E9F0FA"/>
<path d="M512.822 75.548L514.229 75.7959C514.177 76.1852 514.044 76.5593 513.837 76.8939C513.575 77.3054 513.197 77.6317 512.751 77.8325C512.403 78.0076 512.018 78.0986 511.629 78.0981C511.406 78.0948 511.185 78.065 510.97 78.0096C510.413 77.8676 509.919 77.545 509.568 77.0926C509.216 76.6403 509.026 76.0842 509.028 75.5125C509.002 75.3008 509.002 75.0867 509.028 74.875L510.435 75.123C510.378 75.2451 510.348 75.3779 510.346 75.5125C510.346 75.8272 510.472 76.129 510.696 76.3516C510.92 76.5741 511.223 76.6991 511.54 76.6991C511.701 76.7138 511.864 76.695 512.018 76.644C512.172 76.593 512.314 76.5108 512.434 76.4027C512.555 76.2945 512.651 76.1628 512.718 76.0157C512.785 75.8686 512.82 75.7093 512.822 75.548Z" fill="#5C8EDB"/>
<path d="M507.853 64.4619C508.34 64.9271 508.684 65.5204 508.844 66.1726C509.005 66.8248 508.976 67.509 508.761 68.1455C508.615 68.6265 508.352 69.0644 507.995 69.4205L504.433 74.0427L501.904 77.2834L491.217 91.0613L490.344 84.7391L486.782 79.2669L497.469 69.5268L502.812 64.6213C502.867 64.5688 502.927 64.5213 502.99 64.4796C503.648 63.8647 504.515 63.5209 505.418 63.5176C506.32 63.5143 507.191 63.8518 507.853 64.4619ZM505.484 68.1455C505.484 67.8683 505.373 67.6026 505.176 67.4066C504.979 67.2107 504.712 67.1006 504.433 67.1006C504.154 67.1006 503.887 67.2107 503.69 67.4066C503.493 67.6026 503.382 67.8683 503.382 68.1455C503.382 68.4226 503.493 68.6883 503.69 68.8843C503.887 69.0802 504.154 69.1903 504.433 69.1903C504.712 69.1903 504.979 69.0802 505.176 68.8843C505.373 68.6883 505.484 68.4226 505.484 68.1455Z" fill="#5C8EDB"/>
<path d="M498.662 122.513H500.799V119.502V112.56V102.856H497.184H494.797H491.769H489.596V100.748H492.66H497.006H506.232H507.122V102.856V104.255V124.851V129.296H492.66H489.596V122.513H492.998H498.662Z" fill="#E9F0FA"/>
<path d="M503.044 64.4619C502.98 64.5036 502.92 64.551 502.866 64.6035L497.522 69.509L489.311 59.5918L500.871 62.0357L503.097 64.4441L503.044 64.4619Z" fill="#E9F0FA"/>
<path d="M490.309 50.7725L496.614 57.5551L485.642 55.2352L480.174 48.6296L490.273 50.7725H490.309Z" fill="#E9F0FA"/>
<path d="M451.195 27.8923L453.101 27.4673L486.746 79.2493L490.309 84.7215L491.235 91.0791V91.0968L492.66 100.748H489.596V102.856V112.171V120.636L445.816 29.1143L447.633 28.7069L451.195 27.8923Z" fill="#5C8EDB"/>
<path d="M486.123 46.2921L476.559 44.2732L470.984 37.5791L479.711 39.4209L486.123 46.2921Z" fill="#E9F0FA"/>
<path d="M468.561 27.4673L475.508 34.9407L467.403 33.2229L461.365 25.962L461.383 25.9443L468.561 27.4673Z" fill="#E9F0FA"/>
<path d="M460.154 18.4707L464.376 23.0043L457.75 21.5875L455.826 19.2853L460.154 18.4707Z" fill="#E9F0FA"/>
<path d="M459.531 14.5571C460.104 15.0171 460.484 15.6719 460.599 16.3948C460.715 17.1178 460.556 17.8575 460.154 18.4709L455.826 19.2855L451.961 19.9939L444.374 21.3929C434.132 23.2878 421.736 25.5723 416.268 26.5286C411.548 27.3432 407.042 29.0965 404.833 31.257C404.365 31.8768 403.774 32.3945 403.097 32.7783C402.42 33.1621 401.671 33.4038 400.897 33.4884C400.101 33.4934 399.318 33.2897 398.627 32.898C397.936 32.5062 397.361 31.9402 396.96 31.257C396.96 31.257 396.693 30.7788 396.39 30.1944C396.088 29.61 395.571 28.5829 395.411 28.2818L390.068 29.2736L389.533 27.5026L392.882 26.8828L397.406 26.0328L417.817 22.243L445.353 17.1427L457.607 14.8582L459.531 14.5571ZM459.246 16.6291C459.248 16.5369 459.232 16.4452 459.198 16.3594C459.165 16.2735 459.114 16.1953 459.049 16.1293C458.984 16.0632 458.907 16.0108 458.821 15.975C458.736 15.9391 458.644 15.9207 458.551 15.9207C458.456 15.9184 458.362 15.9349 458.273 15.9695C458.185 16.004 458.104 16.0558 458.036 16.1219C457.968 16.1879 457.914 16.2668 457.877 16.3539C457.84 16.441 457.821 16.5346 457.821 16.6291C457.823 16.7221 457.844 16.8138 457.882 16.8989C457.92 16.9839 457.975 17.0608 458.042 17.1249C458.11 17.189 458.19 17.2393 458.277 17.2727C458.365 17.3061 458.458 17.3221 458.551 17.3198C458.643 17.3222 458.735 17.306 458.82 17.2722C458.906 17.2383 458.983 17.1875 459.048 17.1229C459.113 17.0583 459.164 16.9812 459.198 16.8963C459.232 16.8114 459.249 16.7205 459.246 16.6291ZM401.787 29.2913C401.787 29.0819 401.725 28.8772 401.608 28.7028C401.492 28.5285 401.326 28.3923 401.132 28.3114C400.937 28.2305 400.723 28.2084 400.517 28.248C400.31 28.2876 400.119 28.3871 399.969 28.5339C399.819 28.6807 399.716 28.8684 399.673 29.0733C399.629 29.2783 399.648 29.4913 399.726 29.6858C399.804 29.8802 399.939 30.0474 400.112 30.1662C400.285 30.2851 400.49 30.3503 400.701 30.3538C400.986 30.3539 401.26 30.2425 401.463 30.0437C401.666 29.8449 401.783 29.5747 401.787 29.2913Z" fill="#5C8EDB"/>
<path d="M452.063 29.0714C450.542 30.3141 448.607 30.9979 446.606 30.9999C445.483 31.0046 444.371 30.7975 443.333 30.3904C442.294 29.9833 441.35 29.3842 440.555 28.6276C439.76 27.871 439.129 26.9718 438.698 25.9815C438.267 24.9912 438.046 23.9295 438.046 22.8571C438.007 22.5129 438.007 22.1657 438.046 21.8214L453.97 19C454.643 20.1847 455.002 21.509 455.016 22.8571C455.029 24.0361 454.771 25.2035 454.261 26.2771C453.751 27.3507 453.001 28.3045 452.063 29.0714ZM448.325 24C448.333 23.6933 448.244 23.3916 448.07 23.1336C447.896 22.8757 447.646 22.6733 447.35 22.5527C447.055 22.4321 446.729 22.3987 446.414 22.4568C446.098 22.5149 445.809 22.6619 445.582 22.8788C445.355 23.0957 445.201 23.3725 445.14 23.6737C445.079 23.9749 445.114 24.2866 445.24 24.5686C445.367 24.8507 445.578 25.0901 445.848 25.2561C446.118 25.4221 446.434 25.507 446.755 25.5C446.987 25.5418 447.225 25.5346 447.453 25.4787C447.682 25.4228 447.894 25.3196 448.076 25.1765C448.258 25.0334 448.405 24.8538 448.506 24.6505C448.607 24.4472 448.66 24.2251 448.662 24H448.325Z" fill="#5C8EDB"/>
<path d="M519.662 102.838H518.771V124.833H519.662V102.838Z" fill="#ED942D"/>
<path d="M510.31 77.8516L505.463 100.94L506.771 101.212L511.618 78.123L510.31 77.8516Z" fill="#5C8EDB"/>
<path d="M501.243 77.1311L496.267 100.836L497.575 101.107L502.551 77.4025L501.243 77.1311Z" fill="#5C8EDB"/>
<path d="M510.204 81.7285L501.334 80.0638L501.494 79.196L510.364 80.8607L510.204 81.7285Z" fill="#5C8EDB"/>
<path d="M507.71 94.1072L498.858 92.4603L499.018 91.5925L507.888 93.2395L507.71 94.1072Z" fill="#5C8EDB"/>
<path d="M511.718 78.5231C510.913 78.5231 510.141 78.2064 509.57 77.6424C509 77.0783 508.677 76.3125 508.672 75.5125C508.644 75.2594 508.644 75.0041 508.672 74.751L509.545 74.9812C509.518 75.1573 509.518 75.3364 509.545 75.5125C509.559 76.0524 509.778 76.567 510.158 76.9533C510.537 77.3396 511.049 77.5692 511.592 77.5961C512.135 77.6229 512.667 77.4451 513.084 77.0982C513.5 76.7513 513.769 76.2608 513.837 75.725L514.728 75.8135C514.653 76.5557 514.303 77.2437 513.747 77.7443C513.191 78.2449 512.468 78.5224 511.718 78.5231Z" fill="#5C8EDB"/>
<path d="M537.437 85.961L526.02 83.1275L523.17 82.3837C522.204 82.1614 521.286 81.7653 520.463 81.2149C518.812 80.0782 517.664 78.3534 517.257 76.3979H517.381C518.15 78.0739 519.435 79.4633 521.051 80.3648C521.816 80.7655 522.639 81.0462 523.491 81.1972L526.358 81.8524C530.198 82.7806 533.925 84.1227 537.473 85.8547L537.437 85.961Z" fill="#5C8EDB"/>
<path d="M518.076 70.058L519.163 64.4087L533.038 67.313C534.923 67.5539 536.65 68.4831 537.885 69.9199C539.119 71.3567 539.772 73.1986 539.717 75.0874C539.022 78.7178 538.203 82.3305 537.437 85.9432L538.221 80.4356C538.523 78.6647 538.862 76.7521 539.093 74.9989C539.071 73.3232 538.438 71.7124 537.312 70.4653C536.187 69.2189 534.653 68.4095 532.984 68.1808L526.073 66.6224C524.916 66.3744 523.776 66.0557 522.618 65.7723L519.18 64.9046L519.697 64.5681C519.234 66.339 518.7 68.2693 518.219 70.1288L518.076 70.058Z" fill="#ED942D"/>
<path d="M504.534 73.3733L504.297 74.6805L526.998 78.7417L527.235 77.4345L504.534 73.3733Z" fill="#5C8EDB"/>
<path d="M508.848 67.6975L508.667 68.5645L528.791 72.7192L528.972 71.8522L508.848 67.6975Z" fill="#ED942D"/>
<path d="M496.774 70.058L454.58 19.2855L456.699 18.9136L498.146 68.9424L496.774 70.058Z" fill="#5C8EDB"/>
<path d="M502.705 64.7273L459.834 18.754L460.475 18.1519L503.346 64.1252L502.705 64.7273Z" fill="#ED942D"/>
<path d="M491.93 91.628L490.522 90.5478L507.283 68.8007C507.539 68.5453 507.74 68.2411 507.875 67.9063C508.009 67.5716 508.075 67.2132 508.066 66.8527C508.031 66.1801 507.738 65.5465 507.247 65.0818C507 64.838 506.704 64.6477 506.379 64.5227C506.054 64.3978 505.707 64.3409 505.359 64.3557C504.679 64.3904 504.039 64.6893 503.578 65.188L487.406 79.8691L486.194 78.5586L502.331 63.913C503.131 63.0894 504.226 62.6123 505.377 62.5848C506.253 62.5585 507.116 62.7916 507.858 63.2546C508.6 63.7175 509.187 64.3894 509.544 65.1847C509.901 65.9801 510.012 66.863 509.863 67.7213C509.714 68.5796 509.312 69.3745 508.708 70.005L491.93 91.628Z" fill="#5C8EDB"/>
<path d="M491.751 100.854L489.436 85.0222L452.139 27.6795L453.903 27.3076L491.128 84.3847L491.164 84.5795L493.515 100.606L491.751 100.854Z" fill="#ED942D"/>
<path d="M489.578 122.726L444.997 29.2913L446.689 28.9194L489.578 118.564V122.726Z" fill="#5C8EDB"/>
<path d="M396.836 78.0801H395.945V29.291L396.836 30.9557V78.0801Z" fill="#5C8EDB"/>
<path d="M442.68 0.644043L441.808 0.803427L444.814 17.0768L445.687 16.9174L442.68 0.644043Z" fill="#5C8EDB"/>
<path d="M417.049 15.2212L416.172 15.3771L417.426 22.3501L418.303 22.1942L417.049 15.2212Z" fill="#5C8EDB"/>
<path d="M451.997 19.9585C452.307 20.5252 452.478 21.1569 452.496 21.8018C452.514 22.4468 452.378 23.0869 452.1 23.6697C451.821 24.2525 451.408 24.7616 450.894 25.1554C450.38 25.5491 449.779 25.8163 449.141 25.9352C448.504 26.0541 447.847 26.0214 447.224 25.8396C446.601 25.6577 446.031 25.3321 445.559 24.8891C445.087 24.4462 444.727 23.8985 444.509 23.2909C444.29 22.6833 444.22 22.0329 444.302 21.393C444.359 21.9734 444.533 22.5364 444.814 23.0478C445.096 23.5593 445.479 24.0085 445.941 24.3681C446.356 24.6853 446.833 24.912 447.341 25.0335C447.85 25.1551 448.379 25.1687 448.893 25.0734C449.407 24.9782 449.895 24.7762 450.326 24.4808C450.756 24.1853 451.119 23.803 451.391 23.3587C451.7 22.8929 451.884 22.3565 451.926 21.8003C452.017 21.2091 451.98 20.6054 451.819 20.0293L451.997 19.9585Z" fill="#5C8EDB"/>
<path d="M457.625 14.9112L442.592 1.75314L397.406 26.1034C401.092 23.9252 404.744 21.6761 408.466 19.6041C412.189 17.5321 415.911 15.3539 419.669 13.3173C423.428 11.2807 427.15 9.15563 430.926 7.17218L442.254 1.09789L442.681 0.867676L443.02 1.18644L450.376 7.9514C452.816 10.2359 455.221 12.5558 457.625 14.8403V14.9112Z" fill="#5C8EDB"/>
<path d="M395.642 78.0803H394.752V86.3328H395.642V78.0803Z" fill="#E9F0FA"/>
<path d="M398.154 78.0803H397.263V86.3328H398.154V78.0803Z" fill="#ED942D"/>
<path d="M489.578 100.695L507.122 100.66H507.194V100.731V129.296V129.366H507.122L489.578 129.331V129.242L498.341 128.853L507.122 128.64L506.446 129.296L506.321 115.004L506.446 100.731L507.122 101.403L498.341 101.173L489.578 100.784V100.695Z" fill="#5C8EDB"/>
<path d="M536.066 119.91H521.959V104.839H536.066V119.91ZM522.405 119.467H535.62V105.3H522.405V119.467Z" fill="#ED942D"/>
<path d="M501.227 122.938H489.578V122.053H500.336V103.281H489.578V102.395H501.227V122.938Z" fill="#ED942D"/>
<path d="M397.228 88.7414C397.228 88.582 397.228 88.7414 397.228 88.7414C397.211 88.847 397.211 88.9546 397.228 89.0602C397.27 89.3212 397.342 89.5766 397.441 89.8217C397.548 90.105 397.673 90.2821 397.851 90.7603C397.966 91.1804 397.922 91.628 397.726 92.0177C397.565 92.385 397.269 92.6774 396.898 92.8354C396.527 92.9933 396.11 93.0048 395.731 92.8677C395.441 92.6927 395.201 92.4456 395.036 92.1507C394.87 91.8557 394.785 91.523 394.787 91.1853C394.983 91.7697 395.357 92.3541 395.874 92.4427C396.108 92.4656 396.342 92.4026 396.532 92.2655C396.723 92.1285 396.856 91.9269 396.907 91.6989C396.996 91.2207 396.747 91.1145 396.284 90.4592C396.065 90.168 395.879 89.8531 395.731 89.5206C395.649 89.3337 395.589 89.1375 395.553 88.9362C395.479 88.6576 395.479 88.3648 395.553 88.0862L397.228 88.7414Z" fill="#5C8EDB"/>
<path d="M397.406 87.9976H395.375V88.883H397.406V87.9976Z" fill="#5C8EDB"/>
<path d="M513.47 149.966L497.825 169.635L498.524 170.184L514.169 150.515L513.47 149.966Z" fill="#5C8EDB"/>
<path d="M498.521 171.038L497.823 171.587L513.478 191.248L514.176 190.698L498.521 171.038Z" fill="#5C8EDB"/>
<path d="M513.469 192.092L497.824 211.76L498.523 212.31L514.168 192.641L513.469 192.092Z" fill="#5C8EDB"/>
<path d="M498.527 213.167L497.829 213.717L513.484 233.377L514.182 232.828L498.527 213.167Z" fill="#5C8EDB"/>
<path d="M513.469 234.236L497.824 253.904L498.522 254.454L514.167 234.785L513.469 234.236Z" fill="#5C8EDB"/>
<path d="M498.537 255.277L497.832 255.818L510.24 271.798L510.945 271.257L498.537 255.277Z" fill="#5C8EDB"/>
<path d="M502.603 132.565L501.881 133.083L513.472 149.051L514.194 148.533L502.603 132.565Z" fill="#5C8EDB"/>
<path d="M524.755 276.991H523.865V271.997H486.96V276.991H486.07V271.112H524.755V276.991Z" fill="#5C8EDB"/>
<path d="M389.693 29.4152L389.017 27.1838L389.498 27.0953L459.086 14.1675L459.816 14.8404L390.157 27.8745L390.531 29.1496L389.693 29.4152Z" fill="#5C8EDB"/>
<path d="M459.531 14.5039C460.09 14.9563 460.484 15.5784 460.653 16.2748C460.771 17.0158 460.605 17.7737 460.19 18.4L427.453 24.5097L419.278 25.9795C416.532 26.345 413.821 26.9374 411.174 27.7505C408.479 28.5156 406.026 29.9545 404.049 31.9299C403.575 32.4494 402.984 32.8513 402.326 33.1035C401.667 33.3556 400.958 33.451 400.256 33.382C399.556 33.2889 398.887 33.0399 398.298 32.6535C397.709 32.2671 397.215 31.7534 396.854 31.1507L395.34 28.1932L389.996 29.1849L395.251 27.9984H395.429V28.1578L397.067 31.0798C397.413 31.6037 397.869 32.0462 398.404 32.3766C398.94 32.7069 399.541 32.9171 400.166 32.9924C400.789 33.0415 401.415 32.9418 401.992 32.7015C402.568 32.4612 403.078 32.0873 403.479 31.6111C403.964 31.101 404.476 30.6163 405.011 30.1589C405.566 29.6932 406.162 29.2783 406.792 28.9193C408.029 28.2005 409.336 27.6072 410.693 27.1484C413.368 26.2974 416.108 25.6637 418.886 25.2535C421.611 24.7576 424.336 24.1909 427.079 23.7305L443.465 20.8438C448.951 19.9584 454.419 19.0729 459.923 18.2406L459.78 18.3291C460.182 17.7629 460.36 17.0693 460.279 16.3811C460.161 15.6943 459.809 15.0688 459.282 14.6102L459.531 14.5039Z" fill="#5C8EDB"/>
<path d="M514.282 150.688H497.718V148.386H514.282V150.688ZM498.609 149.803H513.392V149.272H498.609V149.803Z" fill="#5C8EDB"/>
<path d="M514.282 171.745H497.718V169.46H514.282V171.745ZM498.609 170.859H513.392V170.346H498.609V170.859Z" fill="#5C8EDB"/>
<path d="M514.282 192.766H497.718V190.481H514.282V192.766ZM498.609 191.88H513.392V191.367H498.609V191.88Z" fill="#5C8EDB"/>
<path d="M514.282 213.893H497.718V211.591H514.282V213.893ZM498.609 213.008H513.392V212.476H498.609V213.008Z" fill="#5C8EDB"/>
<path d="M514.282 234.949H497.718V232.665H514.282V234.949ZM498.609 234.064H513.392V233.497H498.609V234.064Z" fill="#5C8EDB"/>
<path d="M514.282 256.023H497.718V253.721H514.282V256.023ZM498.609 255.138H513.392V254.607H498.609V255.138Z" fill="#5C8EDB"/>
<path d="M595.017 323H4.0166C1.80746 323 0.0166016 324.791 0.0166016 327C0.0166016 329.209 1.80746 331 4.0166 331H595.017C597.226 331 599.017 329.209 599.017 327C599.017 324.791 597.226 323 595.017 323Z" fill="#DDDEE0"/>
</g>
<defs>
<filter id="filter0_dd_14847_401656" x="98.0171" y="91" width="334" height="235" filterUnits="userSpaceOnUse" color-interpolation-filters="sRGB">
<feFlood flood-opacity="0" result="BackgroundImageFix"/>
<feColorMatrix in="SourceAlpha" type="matrix" values="0 0 0 0 0 0 0 0 0 0 0 0 0 0 0 0 0 0 127 0" result="hardAlpha"/>
<feOffset dy="1"/>
<feGaussianBlur stdDeviation="1"/>
<feColorMatrix type="matrix" values="0 0 0 0 0 0 0 0 0 0 0 0 0 0 0 0 0 0 0.1 0"/>
<feBlend mode="normal" in2="BackgroundImageFix" result="effect1_dropShadow_14847_401656"/>
<feColorMatrix in="SourceAlpha" type="matrix" values="0 0 0 0 0 0 0 0 0 0 0 0 0 0 0 0 0 0 127 0" result="hardAlpha"/>
<feOffset dy="1"/>
<feGaussianBlur stdDeviation="1.5"/>
<feColorMatrix type="matrix" values="0 0 0 0 0 0 0 0 0 0 0 0 0 0 0 0 0 0 0.05 0"/>
<feBlend mode="normal" in2="effect1_dropShadow_14847_401656" result="effect2_dropShadow_14847_401656"/>
<feBlend mode="normal" in="SourceGraphic" in2="effect2_dropShadow_14847_401656" result="shape"/>
</filter>
<clipPath id="clip0_14847_401656">
<rect width="600" height="331" fill="white"/>
</clipPath>
</defs>
</svg>